<svg viewBox="0 0 512 512" xmlns="http://www.w3.org/2000/svg"><g data-name="Capa 20"><path d="M165.94 434.13a6 6 0 0 1-6-6V166.4a6 6 0 0 1 12 0v261.73a6 6 0 0 1-6 6Z" fill="#d9d9d9" class="fill-000000"></path><path d="M433 434.13H102.11a28 28 0 0 1-28-28v-275a28 28 0 0 1 28-28H433a28 28 0 0 1 28 28v275a28 28 0 0 1-28 28ZM102.11 115.21a16 16 0 0 0-16 16v275a16 16 0 0 0 16 16H433a16 16 0 0 0 16-16v-275a16 16 0 0 0-16-16Z" fill="#d9d9d9" class="fill-000000"></path><path d="M455 172.4H80.15a6 6 0 0 1 0-12H455a6 6 0 0 1 0 12Z" fill="#d9d9d9" class="fill-000000"></path><path d="M267.55 434.13a6 6 0 0 1-6-6V166.4a6 6 0 0 1 12 0v261.73a6 6 0 0 1-6 6ZM369.17 434.13a6 6 0 0 1-6-6V166.4a6 6 0 0 1 12 0v261.73a6 6 0 0 1-6 6Z" fill="#d9d9d9" class="fill-000000"></path><path d="M455 244.92H80.15a6 6 0 0 1 0-12H455a6 6 0 0 1 0 12ZM455 352.15H80.15a6 6 0 1 1 0-12H455a6 6 0 0 1 0 12Z" fill="#d9d9d9" class="fill-000000"></path></g></svg>